<?xml version="1.0" standalone="no"?>
<!DOCTYPE svg PUBLIC "-//W3C//DTD SVG 20010904//EN"
 "http://www.w3.org/TR/2001/REC-SVG-20010904/DTD/svg10.dtd">
<svg version="1.0" xmlns="http://www.w3.org/2000/svg"
 width="300.000000pt" height="419.000000pt" viewBox="0 0 300.000000 419.000000"
 preserveAspectRatio="xMidYMid meet">
<metadata>
Created by potrace 1.10, written by Peter Selinger 2001-2011
</metadata>
<g transform="translate(0.000000,419.000000) scale(0.100000,-0.100000)"
fill="#000000" stroke="none">
<path d="M1030 4153 c-8 -3 -30 -22 -50 -41 l-35 -36 33 23 c17 12 32 26 32
30 0 4 12 12 28 18 15 6 23 11 17 11 -5 0 -17 -2 -25 -5z"/>
<path d="M1027 4041 c-20 -22 -41 -58 -48 -80 l-12 -39 -52 5 c-47 5 -53 3
-73 -21 -23 -31 -18 -67 17 -112 l20 -26 -42 -32 c-157 -120 -217 -243 -172
-354 9 -20 23 -43 32 -49 17 -13 20 -11 -33 -28 -9 -3 -21 -19 -27 -35 -6 -17
-17 -30 -24 -30 -7 0 -22 -5 -32 -12 -16 -10 -25 -5 -65 34 -25 25 -72 58
-105 74 -54 26 -58 31 -50 52 11 30 12 28 -8 47 -13 14 -14 21 -5 36 18 28 14
47 -10 55 -28 10 -58 6 -77 -9 -11 -9 -15 -9 -18 1 -3 6 -12 12 -22 12 -38 0
-58 -32 -60 -97 -1 -20 -4 -21 -25 -12 -19 9 -29 7 -50 -6 -47 -31 -44 -105 4
-120 18 -6 20 -12 15 -37 -12 -53 -12 -63 -2 -85 18 -40 80 -42 92 -2 8 24 14
24 44 -2 22 -18 23 -21 8 -36 -13 -13 -19 -14 -31 -4 -15 13 -36 7 -36 -10 0
-18 40 -49 65 -49 27 0 49 31 41 58 -4 11 3 22 23 33 39 23 47 61 22 112 -11
23 -19 42 -17 44 13 13 168 -82 194 -118 7 -10 18 -24 25 -31 17 -19 57 -76
57 -83 0 -3 -9 -5 -19 -5 -11 0 -22 -9 -26 -19 -3 -11 -15 -23 -26 -26 -44
-14 -50 -87 -7 -98 11 -3 30 -1 42 5 20 11 20 11 -2 28 -17 14 -19 20 -9 28 8
7 19 5 35 -9 l24 -19 -22 -30 c-16 -22 -29 -30 -51 -30 -17 0 -49 -9 -71 -20
-23 -11 -46 -20 -51 -20 -6 0 -25 -11 -43 -25 l-34 -26 -22 21 c-28 25 -34 25
-62 -3 -23 -23 -24 -23 -46 -5 -26 21 -61 23 -78 6 -31 -31 -1 -138 39 -138
23 0 24 10 2 48 -17 29 -12 69 8 57 6 -4 19 -27 30 -52 24 -56 51 -56 60 0 3
20 9 40 12 44 13 13 19 -28 8 -58 -18 -51 -15 -58 31 -61 59 -4 63 -28 5 -28
-53 0 -73 -17 -53 -46 7 -10 17 -30 21 -42 12 -40 -26 -22 -50 23 -15 29 -26
39 -40 37 -11 -2 -22 -8 -23 -13 -2 -5 -13 -9 -24 -9 -11 0 -18 3 -16 8 2 4
10 19 18 35 17 35 4 51 -30 34 -16 -8 -28 -26 -34 -50 -8 -33 -7 -41 12 -60
15 -15 35 -22 60 -22 32 0 36 -3 32 -20 -2 -11 -4 -45 -4 -76 0 -67 27 -107
89 -135 22 -10 42 -19 44 -21 2 -1 -8 -16 -22 -32 -49 -58 -71 -136 -72 -246
0 -110 17 -171 64 -235 35 -47 39 -51 93 -93 42 -31 45 -36 28 -42 -11 -4 -34
-4 -50 0 -39 9 -54 -18 -41 -75 10 -47 32 -75 76 -98 34 -18 112 -25 121 -11
11 18 34 9 34 -15 0 -36 69 -98 136 -121 32 -11 59 -25 61 -31 2 -6 -13 -15
-32 -21 -32 -10 -38 -9 -61 14 -47 47 -74 -1 -28 -50 23 -25 32 -28 68 -23 22
3 61 12 84 21 42 15 45 14 78 -6 40 -24 40 -26 -1 -30 -16 -2 -43 -12 -60 -24
-29 -19 -80 -73 -80 -84 0 -3 -4 -12 -8 -18 -17 -27 -33 -112 -30 -158 8 -99
72 -183 158 -206 69 -19 70 -20 59 -27 -26 -17 -47 -102 -41 -165 14 -139 101
-228 268 -273 58 -15 209 -22 249 -11 8 2 33 7 55 12 112 22 219 104 248 190
28 81 17 218 -19 232 -8 3 -30 -9 -50 -27 -29 -25 -42 -30 -63 -25 -28 7 -51
30 -51 53 0 28 54 69 102 76 42 6 54 3 149 -46 155 -80 311 -107 450 -77 70
15 178 71 224 117 32 31 107 135 110 152 1 3 9 30 18 60 9 30 17 73 18 95 3
69 -41 186 -78 208 -18 11 -16 30 5 44 56 34 68 159 27 270 -27 72 -91 165
-127 184 -46 25 -55 42 -60 114 -5 75 -28 130 -72 178 -32 35 -32 37 0 37 33
0 119 82 110 105 -4 11 2 15 21 15 15 0 34 7 44 16 17 15 19 15 34 0 9 -9 19
-16 23 -17 4 0 15 -2 24 -4 33 -6 58 53 33 78 -16 17 -21 32 -7 23 5 -3 19 2
31 10 29 21 23 60 -14 90 -27 21 -27 23 -11 40 22 22 16 80 -11 99 -15 12 -16
17 -5 34 38 63 -27 112 -79 60 -15 -15 -24 -18 -32 -10 -6 6 -21 11 -32 11
-23 0 -65 -38 -65 -59 0 -6 -25 13 -55 44 -31 31 -66 60 -79 65 -21 7 -24 18
-34 103 -6 52 -18 109 -27 126 -13 26 -13 31 -1 31 13 0 31 18 77 79 9 12 22
39 29 60 12 38 41 61 77 61 11 0 13 -5 8 -17 -5 -10 -10 -32 -12 -49 -4 -25 1
-35 23 -53 19 -15 36 -20 51 -16 19 4 23 1 23 -16 0 -23 51 -79 72 -79 40 1
66 29 70 77 1 8 16 12 40 11 72 -3 102 57 53 110 -15 17 -21 29 -14 33 6 4 14
27 16 53 4 36 2 51 -12 66 -25 27 -79 27 -98 -1 -15 -20 -15 -20 -21 -1 -9 26
-51 68 -76 75 -26 7 -60 -25 -60 -57 0 -14 -4 -26 -10 -26 -5 0 -10 5 -10 10
0 6 -13 10 -30 10 -35 0 -50 -23 -43 -63 4 -19 1 -27 -8 -27 -10 0 -15 16 -16
52 -4 66 -28 165 -64 253 -20 48 -25 71 -17 74 23 8 58 55 58 78 0 14 -7 37
-16 52 -16 27 -61 54 -75 45 -5 -3 -7 25 -6 62 2 61 0 68 -25 86 -49 38 -117
-6 -164 -106 -17 -36 -25 -46 -29 -34 -4 9 -19 21 -35 26 -23 8 -32 7 -49 -9
-12 -11 -21 -27 -22 -37 0 -9 -2 -24 -4 -33 -1 -9 5 -34 14 -55 l17 -38 -88
-58 c-48 -32 -96 -70 -106 -86 -20 -32 -31 -32 -112 5 -30 14 -81 28 -113 30
l-57 6 -38 71 c-21 39 -50 91 -64 116 -40 71 -42 100 -7 138 38 41 39 83 2
112 -21 16 -35 20 -64 15 -37 -6 -37 -6 -37 28 0 40 -24 92 -47 101 -30 11
-43 6 -78 -33z m67 -30 c3 -5 8 -35 12 -67 3 -33 9 -63 14 -68 6 -6 25 -2 49
8 63 29 81 6 31 -41 -17 -15 -30 -38 -30 -51 0 -25 -13 -45 -82 -122 -130
-145 -160 -218 -124 -304 l16 -39 -42 -46 c-24 -25 -50 -56 -58 -69 -13 -20
-17 -21 -34 -9 -19 14 -29 59 -19 91 5 18 7 17 20 -7 17 -34 40 -35 55 -2 6
14 18 24 27 23 11 -2 16 5 16 22 0 18 -6 26 -23 28 -13 2 -29 -2 -37 -8 -10
-8 -19 -8 -35 2 -17 11 -22 11 -31 -2 -8 -11 -12 -12 -16 -2 -9 23 -43 35 -59
21 -20 -16 -31 0 -40 59 -11 74 9 116 93 199 41 40 88 81 104 90 37 22 39 64
4 109 -35 45 -33 58 8 50 17 -4 42 -9 53 -12 18 -3 26 5 43 41 12 25 21 47 21
50 0 10 44 65 51 65 4 0 10 -4 13 -9z m990 -186 c3 -8 1 -26 -4 -40 -5 -14 -7
-25 -4 -25 2 0 0 -8 -5 -18 -15 -29 -2 -63 23 -61 39 3 54 -1 70 -16 16 -17
11 -45 -8 -45 -6 -1 -21 -9 -34 -20 l-23 -19 47 -138 c50 -149 70 -283 43
-283 -8 0 -45 -18 -82 -39 -60 -36 -67 -38 -67 -20 0 13 -11 25 -33 34 -19 8
-39 21 -47 29 -7 9 -26 16 -42 16 l-29 0 35 35 c58 58 60 137 6 243 -16 32
-31 67 -33 78 -2 10 -9 32 -15 47 -7 16 -15 54 -18 85 l-7 57 25 -22 c34 -32
66 -30 80 5 18 41 89 132 103 132 7 0 15 -7 19 -15z m-857 -207 c22 -40 48
-97 58 -125 20 -57 22 -58 102 -54 26 1 63 -8 99 -24 31 -14 62 -24 68 -23 6
1 21 -1 33 -6 16 -5 28 -1 42 13 12 12 26 21 32 21 7 0 30 15 53 33 51 42 118
87 128 87 5 0 8 -10 8 -22 0 -13 14 -52 31 -88 40 -84 43 -149 9 -185 -29 -31
-40 -32 -41 -2 0 22 0 22 -10 -2 -5 -13 -17 -30 -26 -36 -10 -7 -14 -20 -11
-32 4 -16 -3 -25 -31 -40 l-37 -20 -17 28 c-31 55 -41 38 -39 -66 3 -195 -144
-365 -333 -384 -64 -7 -65 -7 -65 17 0 33 -40 26 -58 -10 -7 -16 -17 -28 -23
-28 -5 0 -9 12 -9 28 0 52 -15 53 -35 2 -19 -50 -35 -65 -35 -34 0 38 -37 88
-109 148 -85 71 -122 130 -126 202 -3 49 13 122 38 170 18 36 96 114 114 114
14 0 73 49 73 61 0 13 -37 11 -62 -2 -18 -9 -24 -8 -35 7 -30 41 2 145 66 214
18 19 47 52 64 73 17 20 34 37 38 37 4 0 25 -33 46 -72z m-907 -137 c14 -26
14 -26 -19 -26 -39 0 -50 13 -27 31 26 19 33 18 46 -5z m-78 -121 c11 0 29 11
40 25 11 14 24 25 30 25 13 0 -19 -51 -44 -68 -19 -14 -19 -41 -1 -64 21 -24
33 -67 22 -74 -14 -8 -46 22 -53 52 -10 38 -37 26 -63 -26 -20 -41 -22 -43
-22 -17 -1 15 6 39 15 52 19 29 10 65 -16 65 -25 0 -50 10 -50 21 0 15 64 43
68 30 2 -6 10 -11 18 -11 10 0 14 13 14 48 0 72 15 74 18 3 3 -54 5 -61 24
-61z m545 -72 c1 -19 -4 -28 -20 -32 -12 -3 -25 0 -29 7 -12 18 -10 27 7 27 8
0 15 7 15 16 0 26 25 9 27 -18z m1677 -59 c11 -55 19 -69 41 -69 16 0 26 8 31
22 8 26 28 48 43 48 20 0 11 -41 -14 -66 -32 -32 -31 -39 5 -66 17 -12 30 -28
30 -35 0 -18 -35 -16 -50 2 -7 9 -23 15 -34 13 -17 -2 -22 -12 -26 -52 -3 -27
-10 -51 -16 -53 -15 -5 -24 33 -17 69 8 42 -13 52 -54 27 -30 -19 -34 -19 -39
-4 -8 19 11 57 46 95 24 26 25 30 12 58 -8 17 -12 38 -8 48 6 17 8 16 27 -3
11 -11 22 -26 23 -34z m-1755 22 c12 -8 12 -14 2 -39 -7 -17 -10 -39 -7 -49 3
-13 -5 -24 -31 -41 -19 -12 -38 -20 -41 -17 -4 3 0 10 8 15 12 7 11 12 -7 28
-35 30 -33 45 7 46 32 1 35 4 38 34 3 34 8 37 31 23z m1669 -38 c2 -8 -6 -13
-22 -13 -26 0 -40 12 -29 24 11 11 46 2 51 -11z m-1575 -33 c14 -16 31 -30 37
-30 7 0 8 -10 3 -27 -11 -40 -7 -145 7 -188 7 -20 10 -38 7 -41 -11 -11 -36
10 -39 34 -4 35 -33 40 -64 11 -17 -16 -27 -20 -35 -12 -12 12 4 53 21 53 21
0 9 38 -12 44 -29 7 -54 44 -39 59 7 7 18 5 37 -7 39 -26 49 -9 34 53 -19 82
-1 104 43 51z m1056 -30 c10 -29 34 -40 46 -20 9 15 25 12 25 -5 0 -9 -7 -18
-15 -21 -23 -9 -18 -40 10 -52 14 -6 25 -16 25 -22 0 -6 -13 -4 -31 6 -24 12
-37 13 -54 6 -21 -10 -23 -8 -28 21 -2 18 0 35 6 39 8 5 8 17 0 42 -13 43 1
49 16 6z m129 -75 c-5 -26 9 -34 28 -16 5 6 10 0 11 -16 0 -15 -2 -21 -6 -14
-5 8 -18 10 -36 5 -24 -6 -27 -4 -22 10 4 10 7 26 7 37 0 10 5 19 11 19 7 0 9
-10 7 -25z m192 19 c0 -10 -57 -88 -78 -108 -20 -18 -21 -18 -20 0 1 11 -2 29
-6 42 -5 14 -3 22 4 22 6 0 28 11 48 25 36 25 52 31 52 19z m-392 -92 c-4 -69
11 -76 61 -32 18 17 37 30 42 30 15 0 21 -20 14 -49 -4 -21 -17 -33 -45 -46
-53 -24 -56 -40 -15 -79 35 -33 44 -59 25 -71 -16 -10 -60 23 -60 45 0 24 -15
33 -40 25 -15 -5 -20 -13 -17 -33 5 -35 -12 -84 -27 -79 -12 4 -13 42 -3 67 4
8 2 22 -3 30 -8 12 -13 13 -27 2 -51 -36 -65 -26 -29 21 14 19 26 38 26 43 0
5 7 22 15 37 8 16 17 49 21 75 8 57 43 111 57 86 5 -8 7 -41 5 -72z m-1144 56
c-4 -5 4 -23 16 -40 33 -44 11 -55 -33 -16 l-36 32 22 21 c22 21 43 23 31 3z
m1396 -66 c0 -5 -7 -17 -15 -28 -8 -10 -15 -27 -15 -36 0 -19 -20 -26 -20 -8
0 6 -6 10 -14 10 -21 0 -18 58 3 63 28 8 61 7 61 -1z m-1372 -82 c16 -35 52
-48 89 -31 33 15 36 11 27 -34 -5 -29 -10 -35 -27 -33 -11 2 -21 11 -23 21 -4
29 -11 31 -24 8 -14 -28 -34 -27 -27 1 9 32 -9 48 -44 41 -33 -6 -34 -4 -17
32 15 33 30 32 46 -5z m1420 -32 c16 -63 21 -158 8 -158 -18 0 -37 50 -26 71
26 48 -10 108 -56 93 -14 -4 -13 -1 6 15 39 32 56 27 68 -21z m-128 -27 c0
-37 16 -48 39 -27 10 9 21 16 24 16 13 0 7 -27 -8 -40 -19 -16 -19 -39 1 -61
15 -16 15 -20 0 -41 -12 -17 -16 -19 -16 -6 0 9 -6 23 -12 30 -7 7 -13 26 -13
43 0 21 -5 31 -19 33 -16 4 -18 0 -13 -27 5 -23 3 -31 -7 -31 -19 0 -27 98 -8
105 6 2 12 11 12 20 0 8 5 15 10 15 6 0 10 -13 10 -29z m-1382 -1 c7 -11 18
-20 26 -20 7 0 19 -7 27 -16 10 -13 10 -17 0 -24 -18 -10 -4 -32 18 -28 9 2
29 -7 43 -18 25 -20 26 -24 16 -58 -6 -20 -18 -36 -25 -36 -8 0 -32 14 -54 32
-33 27 -42 30 -49 18 -13 -21 -12 -27 5 -34 24 -9 18 -21 -19 -37 l-35 -16 16
41 c16 41 42 86 54 96 3 3 9 17 13 33 5 22 3 27 -13 27 -11 0 -27 -7 -35 -16
-25 -24 -84 -155 -89 -196 -4 -36 6 -117 20 -148 3 -8 7 -46 8 -85 1 -38 9
-84 16 -100 23 -50 80 -114 134 -150 90 -59 248 -114 272 -93 26 21 12 35 -49
48 -34 8 -83 24 -110 37 -26 13 -51 23 -55 23 -5 0 -38 28 -76 63 -58 54 -69
69 -81 117 -14 58 -12 80 7 57 26 -30 95 -50 152 -44 72 7 114 33 143 85 28
50 19 72 -30 72 -19 0 -40 10 -59 29 -24 24 -29 38 -29 76 0 47 53 195 70 195
14 0 21 -18 10 -25 -20 -12 -9 -43 25 -74 28 -25 34 -36 29 -55 -8 -33 13 -94
36 -106 57 -31 122 79 105 179 -6 36 -11 42 -43 51 -50 14 -50 14 -54 -17 -3
-31 -25 -37 -41 -11 -9 13 -6 21 13 36 18 15 22 24 16 46 -7 27 -8 28 -26 11
-19 -18 -50 -15 -50 5 0 6 11 16 25 22 14 6 25 15 25 20 0 5 22 -14 49 -41 26
-28 53 -51 59 -51 27 0 98 -129 91 -167 -6 -36 2 -45 33 -39 18 3 36 13 41 22
5 8 26 22 47 30 21 9 41 22 44 30 4 10 10 12 23 5 10 -5 27 -12 38 -16 12 -4
15 -9 9 -13 -51 -33 -40 -176 14 -197 18 -7 80 39 93 69 8 16 20 21 54 23 44
1 99 28 90 44 -3 4 -27 6 -53 4 -26 -3 -54 -1 -62 5 -15 9 -17 8 36 25 25 8
10 30 -20 28 -36 -3 -36 32 1 41 28 8 93 50 131 86 24 23 44 19 27 -4 -36 -48
-44 -65 -49 -100 -7 -45 4 -62 45 -71 22 -5 36 -2 49 10 29 26 40 10 34 -48
-13 -122 -85 -206 -172 -201 -41 3 -60 18 -70 58 -6 24 -14 31 -32 31 -17 0
-26 -9 -36 -35 -24 -68 -12 -230 18 -230 5 0 7 -4 4 -9 -3 -4 10 -25 30 -45
168 -173 457 -53 513 214 12 56 16 163 7 178 -4 6 -4 22 0 36 5 23 7 23 32 10
32 -17 78 -18 87 -3 13 20 7 81 -9 98 -15 14 -18 14 -26 1 -5 -8 -7 -25 -3
-37 7 -29 -15 -31 -47 -5 -41 33 3 72 84 73 24 0 23 3 30 -66 4 -33 12 -77 18
-98 11 -38 58 -87 83 -87 7 0 18 -7 25 -15 9 -11 8 -19 -4 -37 -22 -32 -20
-74 6 -98 25 -23 40 -25 70 -9 20 11 20 9 14 -27 -14 -72 -54 -107 -144 -121
-50 -9 -50 -28 0 -73 49 -42 86 -115 94 -182 5 -36 3 -40 -13 -33 -93 37 -128
44 -213 41 l-88 -3 -6 36 c-6 42 -54 93 -101 108 -30 10 -76 8 -105 -4 -8 -3
-17 -7 -20 -7 -35 -7 -88 -83 -92 -130 -3 -46 17 -62 49 -41 38 25 63 19 63
-13 0 -40 -30 -65 -70 -58 -18 2 -33 6 -35 8 -1 2 -19 40 -40 86 -21 45 -42
82 -47 82 -4 0 -8 7 -8 15 0 17 -47 96 -64 107 -15 10 -27 -14 -14 -29 8 -10
7 -13 -3 -13 -15 0 -90 -38 -99 -49 -9 -13 -105 -67 -148 -84 -44 -18 -99 -22
-118 -9 -42 27 -114 99 -114 114 0 26 -43 23 -76 -6 -27 -22 -28 -27 -29 -122
-1 -116 -15 -171 -48 -199 -33 -27 -37 -45 -19 -77 15 -25 14 -28 -8 -46 -13
-10 -24 -27 -25 -38 0 -10 -8 -30 -17 -44 -9 -14 -20 -38 -24 -53 -6 -25 -9
-27 -38 -21 -65 14 -116 73 -116 135 0 35 -15 40 -59 17 -57 -29 -97 -24 -139
19 l-37 37 30 6 c50 11 105 55 105 84 0 3 -19 18 -42 33 -139 90 -204 242
-168 394 21 91 75 175 123 192 11 4 17 14 15 24 -2 13 -18 20 -57 25 -87 13
-131 56 -131 129 0 28 13 39 24 20 8 -13 55 -1 69 18 8 11 27 17 55 18 24 0
47 4 52 9 5 5 11 36 14 69 11 111 32 167 89 237 26 33 29 34 45 8z m-98 -8 c0
-5 -9 -17 -20 -27 -11 -10 -27 -42 -37 -71 l-16 -53 -28 20 c-15 10 -32 19
-38 19 -18 0 -12 29 8 40 11 5 25 16 33 23 17 16 81 57 91 57 4 0 7 -4 7 -8z
m1188 -109 c-3 -14 14 -63 21 -63 4 0 6 -13 3 -30 -4 -30 -16 -39 -27 -20 -3
6 -15 10 -26 10 -16 0 -18 5 -13 28 4 15 11 33 16 39 6 7 8 20 4 28 -3 9 0 15
9 15 8 0 14 -3 13 -7z m216 -33 c71 -10 86 -22 55 -43 -12 -9 -26 -14 -30 -11
-4 2 -13 -4 -18 -14 -8 -15 -6 -23 9 -37 21 -19 27 -55 10 -55 -6 0 -15 11
-22 24 -20 45 -48 40 -55 -9 -5 -28 -21 -41 -34 -28 -8 8 -8 21 1 47 15 47 7
58 -37 50 -32 -6 -34 -5 -25 12 6 11 20 28 31 38 12 11 21 26 21 34 0 10 5 12
18 7 9 -4 43 -11 76 -15z m-904 -22 c0 -57 -19 -108 -39 -108 -38 0 -44 91 -8
121 33 27 47 24 47 -13z m438 -55 c17 -44 10 -69 -32 -113 -30 -32 -41 -38
-52 -29 -19 16 -18 64 3 122 14 40 21 47 44 47 20 0 29 -7 37 -27z m-1039 -32
c-21 -17 -49 -18 -49 -2 1 10 65 37 68 28 2 -4 -7 -16 -19 -26z m1848 -13 c29
-29 53 -55 53 -59 0 -3 -11 -4 -23 -2 -14 3 -31 -2 -40 -11 -22 -22 -23 -21
-35 27 -19 75 -23 97 -15 97 4 0 31 -23 60 -52z m-1536 -24 c11 -54 34 -88 77
-110 l42 -22 -26 -21 c-38 -30 -113 -32 -170 -5 -36 17 -79 92 -86 149 -3 28
-1 30 50 41 30 7 56 15 59 18 12 12 48 -22 54 -50z m1812 24 c7 -26 10 -24
-30 -31 -25 -5 -33 -3 -33 8 0 23 4 29 18 32 8 1 16 4 20 7 11 11 20 6 25 -16z
m-110 -45 c-7 -29 4 -73 18 -73 6 0 22 9 36 20 14 11 32 20 39 20 20 0 17 -39
-3 -47 -46 -17 -43 -48 7 -73 22 -11 40 -25 40 -31 0 -14 -40 -1 -65 21 -26
24 -59 9 -49 -22 10 -32 -5 -88 -23 -88 -12 0 -14 7 -11 33 3 17 3 38 1 45 -5
13 -43 17 -43 4 0 -4 -13 -15 -29 -25 -50 -29 -51 13 -2 57 26 23 27 45 4 53
-23 8 -53 34 -53 45 0 4 9 8 20 8 11 0 20 4 20 9 0 5 8 7 18 4 22 -5 39 13 44
47 1 14 7 28 13 32 14 10 25 -13 18 -39z m-636 -42 c-4 -17 0 -36 10 -50 18
-27 15 -32 -16 -24 -19 5 -22 10 -17 36 3 16 6 38 6 48 0 11 5 19 11 19 7 0 9
-11 6 -29z m128 9 c4 -6 13 -9 20 -8 17 4 19 -3 11 -56 -6 -38 -10 -44 -27
-41 -43 8 -55 16 -72 44 -17 29 -17 29 8 35 14 4 28 13 31 21 7 17 20 19 29 5z
m-160 -120 c3 -5 18 -10 33 -10 35 0 46 -8 66 -48 9 -18 26 -42 37 -53 22 -22
16 -41 -32 -96 -26 -30 -28 -31 -34 -13 -4 11 -18 34 -33 51 -20 25 -26 43
-27 85 -1 36 -8 61 -20 74 -10 11 -13 20 -7 20 6 0 14 -4 17 -10z m-41 -67
c-5 -18 -9 -20 -25 -10 -17 11 -17 12 -1 28 21 20 33 11 26 -18z m224 12 c-3
-30 -6 -31 -24 -7 -19 24 -17 32 6 32 15 0 19 -6 18 -25z m-410 -42 c13 -3 42
-3 66 0 38 5 46 3 80 -28 31 -27 37 -38 33 -62 -3 -15 -8 -47 -12 -70 -7 -41
-9 -43 -42 -43 -60 0 -141 51 -172 108 -6 12 -14 50 -18 84 l-6 61 24 -22 c13
-12 34 -24 47 -28z m1014 -15 c-5 -22 -16 -23 -36 -2 -29 28 -17 47 18 31 15
-7 21 -17 18 -29z m-752 -149 c0 -9 -52 -31 -58 -24 -3 3 0 11 6 17 7 7 12 26
12 43 l0 30 20 -30 c11 -16 20 -33 20 -36z m-292 -206 c-15 -31 -34 -53 -53
-62 -33 -15 -46 -31 -39 -43 3 -4 0 -17 -6 -29 -9 -15 -19 -20 -36 -16 -26 5
-54 -15 -54 -37 0 -7 -9 -21 -21 -32 -17 -16 -22 -16 -29 -4 -6 8 -10 32 -10
53 0 22 -5 37 -12 38 -40 2 -67 14 -57 24 3 2 21 7 39 9 47 7 121 34 141 52 8
8 18 14 22 14 11 0 92 58 112 80 28 31 30 9 3 -47z m376 37 c32 -12 66 -66 64
-100 -1 -14 2 -35 6 -47 7 -21 15 -22 46 -10 125 50 299 0 422 -119 48 -47 49
-49 27 -54 -18 -4 -30 1 -46 21 -13 15 -32 29 -43 32 -20 5 -50 -15 -50 -34 0
-5 -11 -9 -25 -9 -25 0 -65 -31 -65 -51 0 -25 22 -49 46 -49 21 0 25 -4 19
-17 -4 -10 -9 -35 -12 -57 -5 -33 -2 -42 18 -57 32 -25 55 -24 83 4 16 16 29
21 42 17 24 -9 54 9 54 32 0 13 8 18 29 18 27 0 29 -2 25 -32 -11 -84 -33
-117 -97 -150 -23 -11 -43 -20 -44 -19 -14 7 -24 -3 -21 -21 2 -19 9 -23 38
-22 19 1 44 4 55 8 39 13 90 -106 87 -202 -5 -132 -126 -287 -265 -337 -38
-14 -79 -19 -157 -20 -142 0 -180 8 -280 59 -165 84 -324 123 -405 98 l-30 -9
40 -8 c22 -4 55 -14 73 -23 l33 -15 -37 -38 c-34 -35 -36 -41 -31 -81 8 -62
42 -88 112 -88 30 0 57 5 60 10 28 45 28 -71 1 -138 -40 -94 -153 -150 -317
-156 -216 -9 -365 76 -388 221 -9 58 3 107 42 174 15 25 27 48 27 51 0 3 -26
9 -57 13 -72 9 -90 16 -134 54 -55 47 -69 113 -46 211 15 68 91 142 158 154
45 8 50 2 32 -34 -34 -70 22 -160 100 -160 48 0 52 14 61 190 5 116 40 181
118 221 51 26 103 24 154 -6 38 -22 44 -23 58 -10 15 16 12 45 -6 45 -14 0
-48 81 -48 117 0 25 8 38 33 57 19 15 45 26 58 25 13 0 18 -3 12 -6 -16 -6
-17 -57 -2 -86 19 -35 53 -65 82 -72 15 -4 30 -11 33 -16 3 -5 20 -9 39 -9 24
0 39 7 54 26 12 15 21 31 21 37 0 6 10 32 22 58 15 33 31 53 54 64 46 21 131
19 176 -5 46 -24 59 -10 23 24 -60 56 -172 69 -240 28 l-29 -18 -18 35 c-22
44 -23 43 6 35 62 -15 126 64 104 128 -14 41 -35 57 -72 58 l-29 0 24 26 c39
42 76 52 123 34z m-826 -70 c29 -27 57 -50 63 -50 6 0 9 -6 6 -12 -2 -7 -17
-13 -33 -13 -23 0 -30 -5 -32 -25 -6 -40 -19 -45 -27 -10 -4 20 -15 34 -30 40
-21 8 -23 14 -20 62 1 29 3 54 4 56 4 9 23 -4 69 -48z m519 16 c0 -8 30 -75
66 -149 37 -75 67 -142 67 -150 0 -34 -34 -117 -48 -117 -29 0 -91 44 -101 71
-8 22 -6 31 10 45 26 23 24 51 -3 60 -37 12 -81 12 -108 1 -14 -5 -31 -11 -38
-13 -7 -1 -21 -13 -32 -26 -19 -22 -19 -22 -20 -3 0 12 -5 26 -12 33 -15 15 5
62 26 62 33 0 66 24 76 56 7 19 16 34 21 34 17 0 68 56 74 83 8 28 22 37 22
13z m-360 -185 c4 -27 -9 -27 -25 -1 -18 30 -69 27 -84 -5 -11 -24 -28 -34
-28 -17 0 22 27 62 42 62 9 0 19 4 23 10 9 14 68 -26 72 -49z m-223 11 c10
-37 -5 -62 -36 -62 -17 0 -19 4 -13 23 4 12 9 35 12 50 7 35 25 30 37 -11z
m194 -86 c3 -23 6 -25 30 -19 55 15 96 9 107 -14 5 -13 18 -23 27 -23 14 0 16
-6 11 -32 -7 -41 -12 -46 -23 -28 -12 20 -45 1 -45 -26 0 -25 33 -30 49 -8 12
16 13 15 18 -9 5 -24 2 -25 -44 -29 -39 -2 -48 0 -48 13 0 16 -19 29 -40 29
-18 0 -32 -40 -19 -56 8 -10 8 -14 0 -14 -6 0 -29 -16 -50 -35 l-39 -36 -22
36 c-25 40 -27 41 -52 18 -28 -25 -68 -4 -68 37 0 31 -1 31 -47 28 -39 -2 -48
0 -51 15 -2 11 5 25 17 33 25 18 26 30 6 50 -20 21 -19 41 4 53 14 8 29 5 62
-12 34 -18 46 -32 57 -65 7 -23 18 -42 22 -42 5 0 2 20 -7 45 -8 25 -19 45
-24 45 -16 0 -10 36 9 53 10 10 21 15 23 13 2 -3 16 -7 31 -10 21 -3 31 1 43
21 15 22 18 23 38 10 12 -8 23 -26 25 -41z m1191 -47 c9 -26 15 -31 36 -26 19
3 25 1 21 -9 -4 -10 1 -11 17 -5 12 5 22 13 22 20 0 6 5 10 10 9 13 -4 6 -71
-8 -80 -7 -4 -15 1 -19 12 -8 21 -44 34 -75 28 -12 -3 -17 -11 -16 -26 3 -27
-23 -82 -38 -82 -11 0 -9 33 6 90 6 22 2 27 -29 40 -48 18 -46 32 4 24 36 -6
40 -5 40 15 0 31 16 26 29 -10z m45 -104 c6 -28 5 -29 -9 -11 -8 11 -15 29
-15 40 0 28 16 8 24 -29z m-1529 -64 c-6 -4 -23 -11 -40 -15 -28 -6 -29 -5
-11 9 21 16 67 22 51 6z m23 -79 c-1 -15 2 -37 6 -50 4 -12 4 -22 -1 -21 -13
1 -96 63 -100 75 -3 10 74 33 89 27 4 -2 6 -16 6 -31z m105 8 c32 -16 65 -30
73 -30 16 0 19 -16 4 -25 -6 -4 -8 -11 -4 -16 3 -5 0 -16 -6 -24 -7 -9 -10
-26 -6 -42 5 -20 4 -24 -3 -13 -6 8 -16 15 -23 16 -7 0 -20 2 -30 2 -19 2 -54
71 -61 125 -3 20 -5 37 -4 37 2 0 29 -13 60 -30z m50 -267 c-3 -32 -7 -60 -9
-62 -2 -2 -13 4 -24 14 -24 22 -26 62 -3 87 31 34 41 23 36 -39z"/>
<path d="M870 3528 c-11 -24 -20 -50 -20 -58 0 -8 9 4 19 27 20 42 46 64 69
56 6 -3 12 0 12 6 0 6 -14 11 -30 11 -27 0 -34 -6 -50 -42z"/>
<path d="M750 3469 c-7 -11 -9 -23 -6 -26 3 -3 8 2 12 11 7 18 39 22 49 6 3
-5 11 -10 17 -10 6 0 3 9 -7 20 -23 26 -51 25 -65 -1z"/>
<path d="M2010 3373 c0 -5 10 -14 21 -21 19 -12 21 -20 16 -75 -3 -39 -2 -56
3 -46 15 26 20 91 9 110 -10 20 -49 45 -49 32z"/>
<path d="M1216 3495 c3 -11 9 -42 14 -70 11 -68 23 -96 54 -124 l26 -24 -13
26 c-6 15 -17 27 -24 27 -6 0 -12 8 -12 18 0 24 -6 50 -14 58 -4 4 -7 17 -7
28 -1 12 -8 35 -16 51 -8 17 -12 21 -8 10z"/>
<path d="M1785 3430 c3 -19 10 -39 16 -45 7 -7 8 -1 3 20 -11 46 -26 67 -19
25z"/>
<path d="M1285 3421 c4 -8 9 -26 9 -40 1 -14 7 -35 13 -46 10 -17 12 -15 10
20 -1 23 -10 48 -21 60 -10 11 -15 14 -11 6z"/>
<path d="M1195 3393 c4 -10 10 -27 13 -38 2 -11 10 -27 16 -35 7 -8 18 -27 26
-42 7 -16 15 -26 18 -23 5 5 -67 155 -75 155 -3 0 -2 -8 2 -17z"/>
<path d="M1161 3382 c-1 -31 23 -87 54 -124 34 -40 32 -26 -5 27 -17 24 -34
61 -39 82 -6 24 -9 30 -10 15z"/>
<path d="M1478 3365 c22 -37 112 -126 112 -109 0 10 -74 91 -104 114 -18 14
-18 14 -8 -5z"/>
<path d="M1501 3293 c28 -40 113 -133 121 -133 11 0 -89 120 -115 139 -20 14
-20 14 -6 -6z"/>
<path d="M1090 3285 c-7 -8 -18 -15 -26 -15 -18 0 -28 -20 -17 -31 6 -6 15 -4
23 6 7 8 18 15 26 15 17 0 24 13 15 28 -6 10 -11 9 -21 -3z"/>
<path d="M1140 3294 c0 -18 36 -104 43 -104 5 0 6 8 2 18 -4 9 -11 31 -16 49
-9 29 -29 55 -29 37z"/>
<path d="M1461 3254 c10 -11 19 -26 19 -32 0 -7 9 -12 20 -12 24 0 25 4 4 40
-11 18 -25 27 -40 26 -23 -1 -23 -1 -3 -22z"/>
<path d="M1680 3266 c0 -2 18 -24 41 -48 42 -45 43 -36 1 20 -21 27 -42 42
-42 28z"/>
<path d="M1002 3204 c1 -42 -9 -59 -27 -44 -11 9 -13 6 -9 -17 3 -15 9 -32 15
-37 5 -6 9 -19 9 -30 0 -18 2 -18 10 -6 9 13 12 12 25 -4 20 -27 18 -9 -5 39
-10 22 -15 42 -11 45 17 11 21 47 7 66 -14 18 -15 17 -14 -12z"/>
<path d="M1115 3163 c-11 -21 -21 -40 -22 -43 -1 -3 4 -13 12 -24 18 -24 39
-12 23 14 -10 16 -9 25 5 49 19 32 21 41 9 41 -5 0 -17 -17 -27 -37z"/>
<path d="M1228 3158 c-59 -55 -99 -158 -88 -227 8 -55 26 -48 34 13 5 49 39
146 50 146 2 0 2 -24 -1 -54 -5 -45 -2 -61 15 -88 l22 -33 0 90 c0 50 4 108
10 130 16 68 11 71 -42 23z"/>
<path d="M1554 3137 c-3 -8 2 -26 10 -39 9 -14 13 -28 9 -33 -5 -4 -1 -5 7 -3
8 3 23 -1 33 -10 23 -21 22 -1 -3 31 -11 14 -20 30 -20 35 0 5 -7 15 -15 22
-12 10 -16 9 -21 -3z"/>
<path d="M1330 3135 c0 -16 13 -31 38 -44 30 -16 32 -81 2 -78 -13 1 -18 7
-15 17 2 8 1 21 -4 29 -6 10 -11 5 -16 -19 -4 -17 -3 -35 1 -40 12 -10 84 0
84 11 0 5 -4 9 -10 9 -13 0 -13 36 0 61 10 17 7 19 -19 19 -20 0 -35 8 -45 22
-9 12 -16 18 -16 13z"/>
<path d="M940 3086 c0 -20 4 -27 14 -23 8 3 17 1 20 -6 3 -8 5 -9 5 -1 1 7 -8
22 -19 35 l-19 24 -1 -29z"/>
<path d="M1058 3103 c-23 -6 -23 -4 11 -58 29 -46 30 -46 33 -18 3 23 -16 86
-25 82 -1 -1 -10 -3 -19 -6z"/>
<path d="M1500 3030 c0 -12 4 -18 10 -15 5 3 22 -15 37 -40 43 -72 56 -86 38
-40 -9 21 -19 42 -23 45 -4 3 -15 18 -24 35 -20 37 -38 44 -38 15z"/>
<path d="M1570 3029 c16 -28 43 -59 52 -59 5 0 -4 18 -18 40 -27 41 -53 56
-34 19z"/>
<path d="M1034 3015 c-10 -20 -8 -25 12 -34 13 -6 24 -15 24 -21 0 -5 4 -10
10 -10 10 0 -4 39 -25 71 -9 15 -12 15 -21 -6z"/>
<path d="M1293 2990 c2 -29 11 -38 21 -22 7 12 -4 52 -15 52 -4 0 -7 -13 -6
-30z"/>
<path d="M1460 2934 c0 -17 -7 -39 -15 -50 -21 -27 -19 -31 14 -26 16 2 38 -1
50 -8 20 -10 19 -5 -10 47 -18 32 -34 60 -36 62 -2 2 -3 -9 -3 -25z"/>
<path d="M1500 2941 c5 -11 16 -25 23 -33 7 -7 21 -24 30 -38 9 -13 17 -20 17
-14 0 12 -67 104 -76 104 -3 0 0 -9 6 -19z"/>
<path d="M186 3331 c-3 -4 1 -17 9 -27 10 -15 16 -16 26 -7 6 6 9 19 6 27 -7
17 -32 22 -41 7z"/>
<path d="M2456 3125 c-3 -8 2 -22 11 -30 14 -15 18 -15 31 -1 8 8 12 22 9 30
-8 20 -43 21 -51 1z"/>
<path d="M780 3026 c0 -20 5 -26 21 -26 15 0 20 5 17 22 -5 34 -38 37 -38 4z"/>
<path d="M1716 2895 c-3 -8 2 -21 10 -30 19 -19 59 -2 50 22 -3 8 -6 17 -6 19
0 12 -49 2 -54 -11z"/>
<path d="M790 2605 c-7 -9 -11 -16 -9 -18 2 -1 13 -7 24 -13 13 -8 19 -21 18
-37 -1 -19 2 -24 13 -20 18 7 18 22 -1 67 -17 39 -26 44 -45 21z"/>
<path d="M1604 2472 c-1 -20 0 -29 3 -19 2 9 9 14 15 10 8 -4 9 0 5 11 -4 10
-7 22 -7 27 0 5 -3 9 -7 9 -5 0 -9 -17 -9 -38z"/>
<path d="M1493 2483 c-21 -8 -15 -50 10 -65 22 -15 47 -14 47 2 0 4 -8 6 -18
3 -28 -7 -49 24 -34 48 7 10 11 19 10 18 -2 0 -9 -3 -15 -6z"/>
<path d="M310 2433 c0 -8 5 -11 10 -8 6 3 10 1 10 -5 0 -7 6 -5 15 4 20 20 19
24 -10 24 -15 0 -25 -6 -25 -15z"/>
<path d="M905 2380 c-11 -18 4 -45 33 -58 24 -10 31 -22 41 -69 28 -120 108
-137 161 -32 13 24 27 38 38 37 38 -3 52 3 52 22 0 17 -5 19 -44 14 -54 -8
-78 5 -100 51 l-17 36 -30 -26 c-39 -32 -45 -31 -79 5 -29 31 -45 37 -55 20z
m178 -82 c18 -13 34 -24 36 -25 6 -3 -51 -73 -61 -73 -12 0 -50 91 -44 107 8
19 33 16 69 -9z"/>
<path d="M425 2200 c2 -30 7 -78 11 -107 6 -48 8 -51 29 -43 13 5 26 6 29 3 3
-4 6 -1 6 5 0 6 -10 12 -22 14 -20 3 -24 11 -31 63 -5 33 -12 74 -17 90 -8 24
-9 19 -5 -25z"/>
<path d="M776 2203 c2 -32 34 -85 34 -56 0 7 -5 15 -11 19 -8 4 -7 9 2 16 11
7 11 11 2 15 -7 2 -13 11 -13 18 0 8 -3 16 -8 19 -4 2 -7 -12 -6 -31z"/>
<path d="M371 2187 c-1 -32 45 -200 65 -237 18 -34 17 -4 -2 45 -9 22 -26 81
-39 130 -13 50 -24 77 -24 62z"/>
<path d="M1947 2203 c-24 -23 23 -93 62 -93 l23 0 -25 30 c-14 16 -28 39 -32
50 -6 20 -16 25 -28 13z"/>
<path d="M1217 2163 c12 -32 45 -84 50 -79 3 3 -7 26 -21 51 -27 46 -41 59
-29 28z"/>
<path d="M1291 2165 c0 -25 27 -86 28 -64 1 9 -6 32 -14 50 -10 23 -14 28 -14
14z"/>
<path d="M899 2155 c16 -31 51 -68 57 -62 3 3 -11 23 -31 44 -20 21 -32 29
-26 18z"/>
<path d="M1930 2083 c5 -12 10 -31 10 -43 0 -29 26 -77 48 -89 25 -13 62 -3
62 17 0 13 -2 13 -17 0 -34 -28 -70 2 -77 64 -1 14 -10 37 -20 50 -15 21 -16
21 -6 1z"/>
<path d="M2052 2088 c-7 -7 -12 -18 -12 -25 0 -16 -5 -16 -31 -2 -19 10 -19 9
-9 -10 6 -12 22 -28 35 -37 14 -9 25 -21 25 -26 0 -5 11 -26 25 -46 14 -20 25
-32 25 -26 0 5 -7 19 -15 30 -8 10 -15 26 -15 34 0 8 12 -3 26 -25 37 -55 47
-65 35 -33 -15 39 -42 81 -64 97 -14 10 -18 23 -15 47 2 19 4 34 3 34 -1 0 -6
-5 -13 -12z"/>
<path d="M1385 2073 c-11 -3 -24 -9 -30 -13 -8 -6 -70 -18 -130 -25 -5 -1 -23
2 -39 7 -16 4 -34 4 -40 -1 -6 -5 -31 -7 -56 -4 -91 11 -125 9 -125 -7 0 -9
22 -23 58 -35 32 -12 55 -24 52 -27 -4 -3 -1 -17 6 -30 7 -12 15 -30 19 -38 5
-10 24 -15 62 -16 63 -1 93 15 85 46 -3 11 -1 23 4 26 5 3 7 9 4 14 -3 4 14
11 37 15 59 10 151 43 159 57 17 27 -17 43 -66 31z m-186 -107 c16 -30 8 -46
-24 -46 -20 0 -55 22 -55 35 0 2 7 11 16 19 22 23 49 20 63 -8z"/>
<path d="M558 2043 c-14 -13 -20 -14 -32 -4 -17 14 -16 4 2 -42 7 -16 12 -47
12 -70 0 -24 7 -52 15 -64 14 -21 65 -38 65 -22 0 5 -11 9 -24 9 -36 0 -46 44
-37 160 2 28 18 42 39 36 27 -9 51 -130 33 -164 -8 -15 -8 -23 0 -27 6 -4 13
2 16 14 6 24 8 25 34 11 25 -14 24 -5 -1 20 -25 25 -27 78 -3 87 11 4 26 -4
45 -25 33 -38 38 -28 7 13 -17 21 -28 26 -51 23 -24 -4 -31 0 -38 18 -8 21
-38 44 -57 44 -5 0 -16 -7 -25 -17z"/>
<path d="M2120 2023 c0 -5 21 -39 45 -78 29 -46 45 -63 45 -49 0 24 -22 74
-33 74 -5 0 -5 5 -2 10 4 6 1 9 -6 8 -7 -2 -18 7 -24 20 -9 21 -25 30 -25 15z"/>
<path d="M507 1971 c-4 -18 -13 -31 -22 -31 -8 0 -15 -4 -15 -10 0 -13 3 -13
35 2 25 11 32 32 16 56 -6 10 -10 5 -14 -17z"/>
<path d="M350 1974 c0 -24 78 -202 80 -182 0 8 -69 180 -75 187 -3 2 -5 0 -5
-5z"/>
<path d="M756 1857 c-8 -58 -43 -134 -88 -190 -32 -41 -32 -53 1 -42 28 9 66
60 84 115 20 61 32 156 19 164 -5 3 -12 -17 -16 -47z"/>
<path d="M721 1585 c0 -16 4 -39 9 -50 7 -16 9 -14 9 15 0 19 -4 42 -9 50 -7
11 -10 8 -9 -15z"/>
<path d="M1824 2665 c-9 -22 3 -46 20 -39 24 9 27 33 5 44 -15 9 -21 7 -25 -5z"/>
<path d="M581 2564 c-18 -8 -31 -17 -28 -20 3 -3 25 3 49 14 49 23 31 28 -21
6z"/>
<path d="M2350 2425 c-16 -19 3 -45 32 -45 27 0 35 30 13 46 -24 18 -30 17
-45 -1z"/>
<path d="M1541 2227 c8 -7 24 -25 34 -40 10 -15 20 -25 23 -23 9 9 -42 76 -58
76 -13 -1 -13 -2 1 -13z"/>
<path d="M1990 1753 c0 -11 49 -103 55 -103 6 0 -26 73 -41 95 -8 11 -14 15
-14 8z"/>
<path d="M1766 1519 c-14 -11 -26 -26 -26 -32 0 -7 6 -3 12 7 10 18 12 17 24
-10 l13 -29 -6 33 c-6 35 9 43 27 15 11 -17 11 -17 6 0 -3 10 -6 23 -6 28 0
15 -15 11 -44 -12z"/>
<path d="M1991 1434 l-34 -36 -22 26 c-13 16 -38 29 -58 33 -84 13 -106 -124
-31 -194 20 -18 29 -21 39 -13 11 9 9 18 -11 47 -13 20 -24 41 -25 47 0 6 -2
19 -4 28 -2 9 3 23 11 29 12 10 19 8 37 -10 12 -12 27 -36 33 -54 14 -43 54
-46 65 -4 8 31 54 89 63 80 12 -12 6 -41 -14 -66 -11 -14 -20 -35 -20 -46 0
-20 8 -25 40 -22 23 2 64 -39 52 -51 -7 -7 -19 -4 -36 10 -34 26 -71 19 -61
-12 13 -39 17 -96 7 -96 -11 0 -45 97 -38 109 3 4 -1 17 -9 27 -14 19 -14 19
-35 -2 -19 -19 -20 -23 -6 -37 18 -18 9 -28 -47 -52 -43 -18 -52 -9 -42 41 6
33 5 35 -14 25 -74 -40 -49 -131 35 -131 28 0 34 -5 48 -40 24 -59 64 -66 91
-14 6 10 19 21 30 22 32 6 45 22 51 63 4 25 11 36 19 32 20 -7 55 15 64 40 12
33 -7 74 -45 98 -23 14 -32 25 -26 33 18 22 21 60 7 86 -27 52 -68 53 -114 4z
m-31 -309 c0 -9 7 -18 15 -21 12 -5 13 -9 4 -20 -9 -11 -15 -11 -25 -3 -16 13
-19 59 -4 59 6 0 10 -7 10 -15z"/>
<path d="M1540 1293 c0 -6 4 -14 9 -18 17 -10 59 -93 81 -160 12 -36 24 -65
26 -65 12 0 -9 80 -35 135 -30 62 -80 129 -81 108z"/>
<path d="M1393 1258 c-13 -6 -23 -15 -23 -21 0 -5 -11 -2 -24 6 -49 32 -84 -4
-74 -74 4 -24 1 -33 -13 -36 -51 -14 -9 -93 50 -93 20 0 34 -7 41 -20 13 -24
52 -26 70 -5 7 9 21 13 34 9 11 -2 30 2 41 10 17 13 18 18 7 36 -9 15 -10 26
-2 40 9 17 6 25 -17 46 -16 15 -27 36 -27 53 -1 26 -21 62 -35 60 -3 0 -16 -5
-28 -11z m-31 -98 c5 0 18 10 29 23 l19 22 -6 -31 c-5 -25 -2 -32 18 -41 l23
-12 -27 0 c-25 -1 -28 -5 -29 -38 0 -37 -1 -37 -12 -13 -6 14 -16 28 -22 32
-6 5 -5 8 3 8 6 0 12 9 12 20 0 11 -7 20 -15 20 -9 0 -15 -9 -15 -24 0 -23
-32 -42 -51 -30 -14 8 2 33 17 27 15 -5 17 2 15 52 l-1 30 16 -22 c9 -13 21
-23 26 -23z m103 -60 c3 -5 2 -10 -4 -10 -6 0 -8 -7 -5 -15 4 -10 0 -15 -15
-15 -24 0 -25 4 -11 31 12 21 25 25 35 9z"/>
<path d="M1512 1264 c16 -27 69 -149 74 -171 6 -21 4 -24 -7 -17 -9 5 -8 -1 4
-16 9 -14 22 -37 28 -52 7 -17 19 -28 30 -28 17 0 17 4 -9 58 -15 31 -29 59
-32 62 -3 3 -6 12 -8 20 -6 25 -64 140 -75 147 -6 3 -8 2 -5 -3z"/>
<path d="M2270 1202 c0 -19 29 -86 35 -80 3 3 -4 25 -15 49 -11 24 -20 38 -20
31z"/>
<path d="M1641 1187 c-1 -17 35 -97 44 -97 2 0 -4 19 -14 43 -10 23 -21 49
-24 57 -4 12 -6 11 -6 -3z"/>
<path d="M1183 1044 c19 -40 45 -91 59 -115 14 -24 29 -54 32 -66 8 -25 26
-31 26 -10 0 7 13 25 28 40 35 34 90 37 117 7 10 -11 23 -20 29 -20 6 0 3 6
-6 14 -10 7 -23 26 -29 42 -9 22 -13 25 -16 12 -3 -13 -14 -18 -38 -18 -21 0
-44 -9 -63 -25 l-30 -25 -19 27 c-11 16 -39 64 -62 108 -55 103 -72 121 -28
29z"/>
<path d="M2216 1078 c-19 -27 -20 -48 -5 -82 10 -20 8 -29 -10 -54 l-21 -30
24 -25 c17 -18 30 -23 50 -20 19 4 26 1 26 -10 0 -18 29 -37 55 -37 8 0 25 15
35 33 11 19 31 39 44 47 14 7 27 24 31 38 5 21 1 31 -24 52 -20 16 -31 34 -31
50 0 18 -9 31 -28 42 -26 16 -30 16 -44 1 -15 -14 -18 -14 -39 1 -31 22 -45
20 -63 -6z m58 -64 c9 -34 47 -30 57 6 8 27 10 22 12 -25 2 -23 7 -31 25 -33
12 -2 22 -8 22 -13 0 -6 -4 -7 -10 -4 -13 8 -51 -13 -49 -28 3 -24 -1 -37 -11
-37 -5 0 -9 3 -9 8 8 49 -18 76 -47 48 -17 -17 -34 -13 -34 8 0 8 8 13 18 12
18 -1 20 12 8 59 -4 14 -2 25 3 25 5 0 12 -12 15 -26z"/>
<path d="M2111 1055 c0 -11 6 -40 13 -65 19 -58 19 -30 1 35 -7 28 -14 41 -14
30z"/>
<path d="M1840 1056 c0 -13 68 -156 75 -156 3 0 -1 15 -8 33 -22 50 -66 133
-67 123z"/>
<path d="M1146 1026 c5 -22 4 -27 -6 -21 -22 14 0 -39 25 -58 24 -18 54 -75
75 -140 6 -20 16 -35 21 -32 12 8 12 48 0 60 -15 15 -91 156 -91 169 0 6 -8
20 -16 31 -15 19 -15 19 -8 -9z"/>
<path d="M2030 982 c4 -20 12 -48 18 -62 9 -21 11 -22 11 -5 1 27 -18 93 -28
99 -5 3 -5 -11 -1 -32z"/>
<path d="M1971 982 c-1 -15 61 -144 66 -138 3 2 -11 37 -30 78 -20 40 -36 67
-36 60z"/>
<path d="M1076 945 c-8 -8 -19 -15 -23 -15 -5 0 -10 -16 -10 -36 l-1 -37 18
41 c10 22 26 45 37 51 10 6 13 11 6 11 -6 0 -18 -7 -27 -15z"/>
<path d="M921 890 c0 -8 8 -40 19 -70 10 -30 19 -48 19 -40 0 20 -38 129 -38
110z"/>
<path d="M895 837 c2 -27 6 -51 9 -54 9 -9 5 48 -4 77 -7 19 -8 13 -5 -23z"/>
<path d="M1031 775 c2 -33 0 -66 -4 -72 -5 -8 -3 -13 7 -13 13 0 14 11 9 68
-7 84 -16 97 -12 17z"/>
<path d="M2156 771 c16 -32 42 -57 50 -49 3 3 -6 18 -20 33 -15 16 -26 32 -26
36 0 5 -4 9 -9 9 -5 0 -3 -13 5 -29z"/>
<path d="M1403 403 c-18 -2 -33 -9 -33 -15 0 -12 59 -3 74 12 6 6 6 9 1 8 -6
0 -25 -3 -42 -5z"/>
<path d="M1503 1789 c8 -31 36 -99 41 -99 8 0 -23 103 -35 114 -9 8 -10 5 -6
-15z"/>
<path d="M1468 1757 c-3 -18 -1 -27 7 -27 7 0 16 -7 19 -16 4 -9 9 -14 12 -11
3 3 -3 22 -14 43 -19 37 -19 37 -24 11z"/>
<path d="M1012 1621 c-10 -6 -9 -18 7 -58 11 -28 17 -55 13 -59 -4 -5 1 -2 10
5 13 9 16 21 11 44 -9 49 -26 77 -41 68z"/>
<path d="M1072 1613 c-5 -10 -6 -27 -1 -38 4 -11 8 -15 8 -8 1 6 8 19 17 27
15 16 12 36 -6 36 -5 0 -13 -8 -18 -17z"/>
<path d="M1140 1577 c-35 -15 -35 -14 -19 -45 18 -36 29 -43 50 -32 21 12 31
37 24 60 -8 24 -25 29 -55 17z"/>
<path d="M1212 1523 c4 -21 33 -25 33 -3 0 8 -8 16 -18 18 -14 3 -18 -1 -15
-15z"/>
<path d="M1219 4058 c-11 -8 -11 -9 3 -4 10 3 20 1 23 -4 4 -6 15 -10 25 -10
10 0 24 -8 30 -17 7 -11 10 -12 7 -4 -2 8 -10 18 -18 21 -8 4 -23 12 -35 18
-14 7 -25 7 -35 0z"/>
<path d="M2735 3065 c0 -35 3 -58 7 -52 10 16 10 105 1 110 -5 3 -8 -23 -8
-58z"/>
<path d="M100 3097 c0 -13 85 -86 100 -86 13 1 13 1 0 6 -8 3 -34 24 -57 46
-24 23 -43 38 -43 34z"/>
<path d="M200 2671 c0 -26 17 -36 36 -21 11 10 12 16 3 26 -17 20 -39 17 -39
-5z"/>
<path d="M2627 1250 c9 -53 25 -84 17 -35 -3 22 -10 47 -15 55 -5 10 -6 2 -2
-20z"/>
<path d="M619 1108 c-7 -13 -19 -28 -27 -34 -12 -9 -12 -12 2 -23 9 -8 16 -9
16 -3 0 6 -6 13 -12 15 -10 4 -10 6 -1 6 12 1 49 61 39 61 -3 0 -11 -10 -17
-22z"/>
<path d="M2330 540 c-31 -18 -57 -22 -137 -23 -45 -1 -77 -4 -72 -8 13 -7 147
-3 174 6 11 4 29 11 40 15 11 5 31 11 45 13 22 4 21 4 -5 5 -16 0 -37 -3 -45
-8z"/>
</g>
</svg>
